<svg xmlns="http://www.w3.org/2000/svg" viewBox="0 0 1200 800" preserveAspectRatio="xMidYMid slice" role="img" aria-label="Dubai skyline at dusk (illustration)"><defs><linearGradient id="s" x1="0" y1="0" x2="0" y2="1"><stop offset="0" stop-color="#2b1a4a"/><stop offset=".6" stop-color="#d9627a"/><stop offset="1" stop-color="#f6b26b"/></linearGradient></defs><rect width="1200" height="800" fill="url(#s)"/><circle cx="860" cy="430" r="110" fill="#ffd9a0" opacity=".9"/><g fill="#3a1d3f"><polygon points="560,560 574,180 580,90 586,180 600,560"/><polygon points="548,560 560,330 600,330 612,560"/><rect x="380" y="420" width="70" height="140"/><rect x="460" y="380" width="56" height="180"/><rect x="640" y="400" width="64" height="160"/><rect x="716" y="450" width="90" height="110"/><rect x="300" y="470" width="70" height="90"/><rect x="820" y="480" width="70" height="80"/><path d="M700 470 q40-80 80 0z"/></g><path d="M0 600 C200 520 380 560 560 590 S900 560 1200 590 V800 H0z" fill="#e8a25e"/><path d="M0 680 C260 620 520 700 760 660 S1040 640 1200 670 V800 H0z" fill="#c97a45"/></svg>